<?xml version="1.0" encoding="UTF-8"?>
<svg version="1.1" xmlns="http://www.w3.org/2000/svg" width="512" height="512">
<path d="M0 0 C1.41503941 -0.00418057 2.83007546 -0.00966204 4.24510539 -0.01631981 C8.10596215 -0.03069837 11.96660407 -0.02655366 15.82747221 -0.019153 C20.00209238 -0.0144047 24.17666717 -0.02694582 28.35127258 -0.03717041 C36.51901683 -0.05433134 44.68668404 -0.05520404 52.85444163 -0.04995751 C59.49595225 -0.04590949 66.13744019 -0.04736685 72.77894974 -0.05270576 C74.19900742 -0.0538284 74.19900742 -0.0538284 75.64775313 -0.05497371 C77.57123275 -0.05650525 79.49471237 -0.0580436 81.41819198 -0.05958868 C99.43995904 -0.07330395 117.46168264 -0.06788289 135.4834487 -0.05640347 C151.95395293 -0.0464723 168.4243448 -0.05941147 184.8948317 -0.08333766 C201.8262302 -0.10774719 218.75757641 -0.11733196 235.68899214 -0.11068493 C245.18689404 -0.10719681 254.68470956 -0.10939787 264.18259811 -0.12693596 C272.26792814 -0.14168114 280.35311095 -0.14226317 288.43843816 -0.12486505 C292.55960959 -0.11637168 296.68051829 -0.11416453 300.8016758 -0.1295166 C304.58188572 -0.14342368 308.36160931 -0.13852422 312.14179154 -0.11927737 C314.14084201 -0.11377671 316.13991762 -0.12773847 318.13892019 -0.14263147 C334.45797541 -0.01069364 348.61185317 5.74707916 360.45791626 16.97361755 C371.52319394 28.66309039 377.04940172 42.60143449 377.03359985 58.56394958 C377.04031708 59.55034424 377.0470343 60.53673889 377.05395508 61.55302429 C377.07285232 64.79223248 377.07685431 68.03123279 377.07901001 71.27049255 C377.08544088 73.53155094 377.09216945 75.7926085 377.09918213 78.05366516 C377.11113213 82.78269888 377.11486501 87.51165965 377.11367798 92.2407074 C377.11347428 98.29797848 377.14083984 104.3547831 377.1752224 110.41194344 C377.19745764 115.07710419 377.20151664 119.74215176 377.20045853 124.40736008 C377.20281712 126.64086905 377.21165514 128.87438102 377.22712326 131.10783768 C377.24672561 134.228959 377.24096863 137.34906176 377.22891235 140.47019958 C377.24015137 141.3898349 377.25139038 142.30947021 377.26296997 143.25697327 C377.20851945 148.8060893 376.44436058 151.98300461 372.74307251 156.38768005 C368.7824425 159.98825279 364.52811592 159.89098888 359.40322876 159.73924255 C355.62692662 159.24017179 353.5211712 157.95742134 350.74307251 155.38768005 C347.74307251 150.38768005 347.74307251 150.38768005 347.74307251 129.38768005 C222.01307251 129.38768005 96.28307251 129.38768005 -33.25692749 129.38768005 C-33.17442749 161.85143005 -33.09192749 194.31518005 -33.00692749 227.76268005 C-32.99113647 238.0086322 -32.97534546 248.25458435 -32.95907593 258.8110199 C-32.92585112 268.0050766 -32.92585112 268.0050766 -32.88735962 277.19911194 C-32.87037232 281.29037661 -32.86449513 285.38149445 -32.86538696 289.47279358 C-32.86615974 294.69731034 -32.84781539 299.92143692 -32.81583834 305.14585233 C-32.80734158 307.05958111 -32.80546694 308.97335396 -32.81110334 310.88709331 C-32.84384127 323.61807745 -32.33551331 333.94446889 -23.19442749 343.6962738 C-17.61821498 348.56421738 -11.35826868 350.50756448 -4.05886841 350.53244019 C-2.76066666 350.53933868 -1.4624649 350.54623718 -0.12492371 350.55334473 C1.3170775 350.5560594 2.75907885 350.55869656 4.20108032 350.56126404 C5.71724131 350.56756935 7.23340045 350.57433513 8.7495575 350.58152771 C12.0169257 350.59620094 15.28428675 350.60792447 18.55167389 350.61747551 C23.72063042 350.63292641 28.88952569 350.65687644 34.05844116 350.68237305 C48.75780363 350.75357675 63.45720134 350.81331804 78.15664673 350.86448669 C86.27325802 350.89281581 94.38980851 350.92821219 102.506356 350.97114044 C107.64173844 350.99787504 112.77705209 351.01580367 117.91249037 351.02717769 C121.11302937 351.03632388 124.31348509 351.05369551 127.51397514 351.07335663 C128.99457676 351.08081046 130.47519977 351.08491188 131.95582008 351.08535194 C133.98293169 351.08644062 136.01002279 351.10089247 138.03707886 351.11593628 C139.16975315 351.12016822 140.30242744 351.12440016 141.4694252 351.12876034 C146.68151757 351.54099579 151.60579285 352.34605216 155.11807251 356.45018005 C158.25743252 360.49852366 159.12949624 364.31025194 158.74307251 369.38768005 C157.2005764 374.61502798 155.31316001 377.41712318 150.74307251 380.38768005 C147.4006526 381.50182002 144.88723176 381.52194293 141.36433411 381.53485107 C140.71419682 381.53852776 140.06405954 381.54220445 139.39422113 381.54599255 C137.21126192 381.55702293 135.02835033 381.56087225 132.84536743 381.56468201 C131.28145192 381.57094758 129.71753789 381.57759447 128.15362549 381.58459473 C123.01027463 381.6056416 117.86692348 381.61600363 112.72354126 381.6259613 C110.94978635 381.63000984 109.17603159 381.63412679 107.40227699 381.63831139 C99.06111347 381.65737126 90.7199588 381.67159574 82.37877768 381.67992336 C72.77292726 381.68967302 63.16730866 381.71592954 53.56153983 381.75642425 C46.12522673 381.78668841 38.68897965 381.8014023 31.25260621 381.80470437 C26.81767988 381.80704484 22.38300095 381.81587227 17.9481411 381.84116554 C13.76608551 381.86462951 9.58443692 381.86860683 5.40233231 381.85840416 C3.87787959 381.85791296 2.3534056 381.8641087 0.82901573 381.87796021 C-17.6802696 382.03655664 -33.27236663 376.90355652 -46.87020874 364.02830505 C-58.84168594 350.78326645 -63.40720202 335.92320018 -63.40409851 318.25782776 C-63.4077752 317.13284626 -63.41145189 316.00786476 -63.41523999 314.84879291 C-63.42625842 311.07675717 -63.4301176 307.304749 -63.43392944 303.53269958 C-63.4396658 300.82874314 -63.44683006 298.1247908 -63.45384216 295.4208374 C-63.47357112 287.30454314 -63.48366904 279.18824771 -63.49256995 271.07193547 C-63.49695941 267.24362852 -63.50232457 263.41532293 -63.50755882 259.58701706 C-63.52456886 246.84966125 -63.5390605 234.11230629 -63.54630756 221.37494087 C-63.54821726 218.07222111 -63.55013762 214.76950135 -63.55209351 211.46678162 C-63.55257725 210.6459713 -63.55306099 209.82516098 -63.55355939 208.97947763 C-63.56185027 195.69867975 -63.58717225 182.4179722 -63.61967418 169.13721372 C-63.6528185 155.48187487 -63.67076304 141.82658181 -63.6739518 128.17120254 C-63.67611028 120.51249135 -63.68476112 112.85391183 -63.71041298 105.19524002 C-63.73222113 98.66931314 -63.74012116 92.14354993 -63.7304462 85.61759074 C-63.72593018 82.29392606 -63.72985232 78.97086955 -63.74720764 75.64720726 C-63.85638317 53.48832242 -62.60612469 34.55328362 -46.60848999 17.6728363 C-33.12150496 4.56671298 -18.57480671 -0.08629249 0 0 Z M-27.08114624 40.56736755 C-39.6261612 58.61031885 -33.25692749 76.30410406 -33.25692749 100.38768005 C92.47307251 100.38768005 218.20307251 100.38768005 347.74307251 100.38768005 C350.95347748 65.59019824 350.95347748 65.59019824 337.26651001 36.88768005 C330.84239693 31.11628435 323.44935747 29.26687182 315.0488863 29.25625229 C313.90602769 29.25241114 312.76316908 29.24857 311.5856784 29.24461246 C310.33472371 29.24547894 309.08376902 29.24634542 307.79490662 29.24723816 C306.44890768 29.24465338 305.10290952 29.24163991 303.75691241 29.23823476 C300.05919679 29.23017469 296.3615006 29.22837574 292.66377723 29.22763729 C288.67521958 29.225785 284.68667196 29.21823677 280.69812012 29.21150208 C271.9769499 29.19792522 263.25578429 29.19189503 254.53460526 29.18749142 C249.08792095 29.18472786 243.6412384 29.1804903 238.19455528 29.17598724 C223.11104475 29.16379536 208.02753563 29.15349593 192.94402027 29.15011215 C191.49619379 29.1497828 191.49619379 29.1497828 190.01911829 29.1494468 C189.05160539 29.14922852 188.08409249 29.14901024 187.08726102 29.14878535 C185.12674701 29.14834189 183.166233 29.14789532 181.20571899 29.14744568 C179.74699837 29.14711353 179.74699837 29.14711353 178.25880864 29.14677468 C162.50370255 29.14282727 146.74864273 29.12537464 130.99355451 29.10208616 C114.81382854 29.07836326 98.63412577 29.06590987 82.45438212 29.06474423 C73.37176696 29.063828 64.28921208 29.05808855 55.20661354 29.03992462 C47.47205306 29.02451097 39.73757149 29.01941063 32.00299857 29.02766272 C28.05847145 29.03156477 24.1141032 29.0306615 20.16959572 29.01660538 C16.55406969 29.00383968 12.93882147 29.00508716 9.32329568 29.01719609 C7.40524719 29.02006892 5.48719379 29.00823753 3.56918365 28.99577403 C-8.00829689 29.06177798 -19.29954252 31.2694342 -27.08114624 40.56736755 Z " fill="#000000" transform="translate(80.25692749023438,46.61231994628906)"/>
<path d="M0 0 C11.35707032 8.5553261 18.81902191 19.93409776 21.58203125 33.953125 C23.58239157 48.5351909 20.9018878 63.09582072 12 75 C4.57302781 83.5459446 -3.41448359 91.56827741 -11.4128418 99.57397461 C-12.61347747 100.77925399 -13.81392131 101.98472448 -15.01419067 103.19036865 C-18.23670146 106.4258402 -21.4624007 109.65811299 -24.68915915 112.88934779 C-26.71005749 114.91319833 -28.73037649 116.9376255 -30.75052834 118.96222115 C-37.08711854 125.31243162 -43.42566667 131.66067786 -49.76712865 138.00602335 C-57.06084729 145.30423549 -64.34795086 152.60896964 -71.62946385 159.91935915 C-77.28220506 165.5937323 -82.94071302 171.2623125 -88.60361224 176.92654806 C-91.97646682 180.30044784 -95.34687512 183.67670572 -98.71127892 187.05903435 C-101.87059339 190.23485985 -105.03703105 193.40340789 -108.20898819 196.56660461 C-109.36769516 197.72454335 -110.52386611 198.88502654 -111.6772213 200.04829597 C-119.93054969 208.36837028 -127.06456262 215.0611457 -139 217.0625 C-139.85303711 217.21750977 -140.70607422 217.37251953 -141.58496094 217.53222656 C-143.42176574 217.86228259 -145.26005843 218.184145 -147.09960938 218.49853516 C-150.09808791 219.01695897 -153.08753886 219.57467511 -156.078125 220.13671875 C-188.03478209 226.00011679 -188.03478209 226.00011679 -199 219 C-199.886875 218.46375 -200.77375 217.9275 -201.6875 217.375 C-208.66846648 210.20535875 -211.35093889 202.74092355 -211.25878906 192.94628906 C-210.73923855 185.02363393 -209.30199627 177.22730581 -207.91162109 169.41796875 C-207.37559802 166.37839117 -206.87277708 163.33447159 -206.37109375 160.2890625 C-206.0280555 158.32516801 -205.68306857 156.36161269 -205.3359375 154.3984375 C-205.19191498 153.50337494 -205.04789246 152.60831238 -204.89950562 151.68612671 C-202.45249557 138.48764055 -193.63811864 130.05496321 -184.46801758 120.95043945 C-183.19352894 119.67052138 -181.91989078 118.38975597 -180.64703369 117.10821533 C-177.20769655 113.65073808 -173.75594168 110.20591956 -170.30117249 106.76387048 C-166.67415068 103.1470269 -163.05695654 99.5203753 -159.43815613 95.89530945 C-153.36006845 89.80995845 -147.27362822 83.73305737 -141.18237305 77.66088867 C-134.15847968 70.65875155 -127.14909849 63.64233498 -120.14709932 56.61830932 C-114.11687303 50.56987985 -108.07882243 44.52934442 -102.03426856 38.49523324 C-98.4321324 34.89930625 -94.83268896 31.30079563 -91.24030495 27.69512367 C-87.8602303 24.30341983 -84.47037722 20.92179181 -81.07301331 17.54740906 C-79.83410787 16.31375352 -78.5985207 15.07675433 -77.36668968 13.83603477 C-68.95259876 5.36688721 -60.37092839 -2.8673118 -48.625 -6.375 C-47.66851562 -6.67148438 -46.71203125 -6.96796875 -45.7265625 -7.2734375 C-29.98783182 -11.4674259 -13.52385488 -9.1833606 0 0 Z M-50 30 C-50.50063965 30.49371094 -51.0012793 30.98742187 -51.51708984 31.49609375 C-55.0386842 34.97081684 -58.52791978 38.47583857 -62 42 C-56.19316781 49.11905227 -49.63714556 55.47374812 -43.125 61.9375 C-41.94768362 63.10979204 -40.77059826 64.28231614 -39.59375 65.45507812 C-36.73182511 68.30606982 -33.86678543 71.15389615 -31 74 C-26.2812588 71.8717752 -23.13756983 68.54328524 -19.5 64.9375 C-18.83613281 64.30650391 -18.17226563 63.67550781 -17.48828125 63.02539062 C-11.84504517 57.44410624 -7.99196405 51.53032786 -7.5625 43.4375 C-7.90023705 36.7642817 -10.17453444 30.69847962 -15 26 C-27.87789154 16.85332854 -39.22342422 19.2792614 -50 30 Z M-87.53459167 67.21246338 C-88.2929834 67.92612564 -89.05137512 68.6397879 -89.83274841 69.37507629 C-91.0895919 70.56661568 -91.0895919 70.56661568 -92.37182617 71.78222656 C-93.24990936 72.61197495 -94.12799255 73.44172333 -95.03268433 74.2966156 C-103.20674049 82.04249483 -111.30031328 89.87104293 -119.36603832 97.72954178 C-124.77787901 102.99891395 -130.21399426 108.2368162 -135.72290039 113.40478516 C-168.45398536 142.37932689 -168.45398536 142.37932689 -181.27949333 182.49884796 C-181.30577061 185.34080255 -181.1730833 188.16394571 -181 191 C-181 191.99 -181 192.98 -181 194 C-155.13601264 191.92424735 -139.07307123 187.54981088 -120.98735142 168.21801805 C-118.58095349 165.67120548 -116.1092169 163.18921308 -113.64471436 160.69882202 C-109.01691515 156.0034579 -104.44794765 151.25514467 -99.89903331 146.4834522 C-94.70540698 141.04129919 -89.44684324 135.66375623 -84.18275309 130.28987241 C-73.38301116 119.2620342 -62.66476939 108.15852035 -52 97 C-53.36263581 94.17368297 -54.6464426 92.10438744 -56.87329102 89.88378906 C-57.45051407 89.30348938 -58.02773712 88.7231897 -58.62245178 88.12530518 C-59.55377174 87.20476349 -59.55377174 87.20476349 -60.50390625 86.265625 C-61.14238998 85.62759949 -61.78087372 84.98957397 -62.43870544 84.33221436 C-63.78546576 82.98846937 -65.13464994 81.64714989 -66.48608398 80.30810547 C-68.56359387 78.24891577 -70.63292661 76.181772 -72.70117188 74.11328125 C-74.00994442 72.80942164 -75.31917341 71.50601999 -76.62890625 70.203125 C-77.25181046 69.58133362 -77.87471466 68.95954224 -78.51649475 68.31890869 C-82.98137241 63.43970108 -82.98137241 63.43970108 -87.53459167 67.21246338 Z " fill="#000000" transform="translate(473,242)"/>
<path d="M0 0 C3.43615111 2.12017834 5.80717883 4.09622164 7 8 C7.51523275 13.23819958 7.29524122 17.04034306 4.39453125 21.51953125 C1.76674196 24.30925713 -1.28586355 25.33924539 -5 26 C-10.3188144 25.9098506 -13.23772858 24.76227142 -17 21 C-19.5385322 16.75129874 -19.67150636 12.83484576 -19 8 C-17.21413657 4.29089903 -15.63776905 2.45978699 -12.3125 0.0625 C-7.92156804 -1.34591214 -4.4347481 -1.21096443 0 0 Z " fill="#000000" transform="translate(101,99)"/>
<path d="M0 0 C2.95365832 1.83484835 5.41785273 3.83570547 7 7 C7.55601425 12.06793316 7.55831633 15.92187191 5.1875 20.5 C2.52106009 23.5473599 0.69021761 24.8274456 -3.25 25.8125 C-8.68432066 26.08421603 -12.24248924 24.48000906 -16.375 21 C-19.42793515 17.24254136 -19.39012608 13.68151299 -19 9 C-17.51348935 4.63001688 -15.69858407 2.42989789 -11.75 0 C-7.42545695 -1.15321148 -4.25640329 -1.43890556 0 0 Z " fill="#000000" transform="translate(190,99)"/>
<path d="M0 0 C3.23547321 1.82659101 5.46675491 4.14217094 7.4375 7.3125 C8.59633235 12.84914345 7.81444668 16.62562122 5 21.375 C1.18312011 24.7147699 -1.94100395 25.87851467 -7 26 C-12.18709909 24.55441501 -15.24713025 22.65870266 -18 18 C-19.16897659 13.79168428 -19.15415568 11.50528805 -17.875 7.3125 C-13.73468572 -0.00205524 -8.0644879 -2.22573768 0 0 Z " fill="#000000" transform="translate(145,99)"/>
</svg>
