<?xml version="1.0" encoding="UTF-8"?>
<svg version="1.1" xmlns="http://www.w3.org/2000/svg" width="96" height="96">
<path d="M0 0 C6.73663151 7.69900744 4.20197177 22.32191242 3.625 32 C3.00185997 36.62643008 1.60202332 40.77281199 -0.375 45 C-0.725625 45.79664063 -1.07625 46.59328125 -1.4375 47.4140625 C-7.07280252 58.80206968 -17.752294 68.8672551 -29.375 74 C-34.80067299 75.03346152 -38.2959297 72.73695567 -42.72265625 69.89453125 C-55.72263746 60.60883039 -65.67175867 48.10450927 -68.375 32 C-68.61773242 27.66906523 -68.60597772 23.33708062 -68.625 19 C-68.645625 17.824375 -68.66625 16.64875 -68.6875 15.4375 C-68.69265625 14.303125 -68.6978125 13.16875 -68.703125 12 C-68.7124707 10.96875 -68.72181641 9.9375 -68.73144531 8.875 C-68.17964567 4.42432012 -66.26273463 1.85005489 -63.07421875 -1.203125 C-49.35148342 -10.33837573 -12.82290486 -10.28903743 0 0 Z " fill="#5C4137" transform="translate(80.375,14)"/>
<path d="M0 0 C6.73663151 7.69900744 4.20197177 22.32191242 3.625 32 C3.00185997 36.62643008 1.60202332 40.77281199 -0.375 45 C-0.725625 45.79664063 -1.07625 46.59328125 -1.4375 47.4140625 C-7.07280252 58.80206968 -17.752294 68.8672551 -29.375 74 C-34.80067299 75.03346152 -38.2959297 72.73695567 -42.72265625 69.89453125 C-55.72263746 60.60883039 -65.67175867 48.10450927 -68.375 32 C-68.61773242 27.66906523 -68.60597772 23.33708062 -68.625 19 C-68.645625 17.824375 -68.66625 16.64875 -68.6875 15.4375 C-68.69265625 14.303125 -68.6978125 13.16875 -68.703125 12 C-68.7124707 10.96875 -68.72181641 9.9375 -68.73144531 8.875 C-68.17964567 4.42432012 -66.26273463 1.85005489 -63.07421875 -1.203125 C-49.35148342 -10.33837573 -12.82290486 -10.28903743 0 0 Z M-49 1.1875 C-49.75821045 1.28828857 -50.5164209 1.38907715 -51.29760742 1.49291992 C-54.9727155 2.10440849 -57.21561184 2.89394958 -60.36328125 4.98828125 C-63.25267577 9.31395732 -63.0883815 12.90571647 -62.9375 18 C-62.92090332 18.93755127 -62.90430664 19.87510254 -62.88720703 20.84106445 C-62.4105595 35.17877036 -57.27668532 47.53495774 -47.375 58 C-45.32585027 59.79945376 -43.17451831 61.38074457 -40.9375 62.9375 C-40.39029297 63.34806641 -39.84308594 63.75863281 -39.27929688 64.18164062 C-36.48923904 66.13963387 -34.73698328 67.00367963 -31.30078125 66.96875 C-20.46853438 63.38210484 -12.14209386 53.61980653 -7 43.75 C-3.06207901 35.09351288 -2.18347763 26.72008945 -2.125 17.3125 C-2.104375 16.47138672 -2.08375 15.63027344 -2.0625 14.76367188 C-2.04054059 11.30231969 -2.0460003 8.7087014 -3.515625 5.54296875 C-14.42006309 -3.50588219 -35.88681638 -0.74400233 -49 1.1875 Z " fill="#4CA74E" transform="translate(80.375,14)"/>
<path d="M0 0 C5.57129515 1.85709838 8.40002 8.06763248 11.12109375 13.0546875 C13.99176897 19.67509639 14.13150068 27.3508402 11.875 34.1875 C10.272023 37.95603726 7.83660573 40.92061263 5.296875 44.1015625 C3.56073885 46.64301481 3.1521901 48.956198 3 52 C1.68 52 0.36 52 -1 52 C-1.20625 51.01 -1.4125 50.02 -1.625 49 C-2.52958401 45.7552965 -3.9171661 43.57406291 -6 40.9375 C-11.32396472 34.12022811 -11.84714563 27.48217971 -11 19 C-9.16621103 11.45620946 -4.99719415 5.81134376 0 0 Z " fill="#7FC482" transform="translate(47,20)"/>
<path d="M0 0 C5.57129515 1.85709838 8.40002 8.06763248 11.12109375 13.0546875 C13.99176897 19.67509639 14.13150068 27.3508402 11.875 34.1875 C9.97855434 38.61253987 7.03915147 42.30187394 4 46 C1.16943008 43.16943008 0.87728352 40.73102065 0.79467773 36.89575195 C0.77473251 36.07512772 0.75478729 35.25450348 0.73423767 34.40901184 C0.71752518 33.52767075 0.70081268 32.64632965 0.68359375 31.73828125 C0.66281265 30.83248825 0.64203156 29.92669525 0.62062073 28.99345398 C0.55523442 26.09987984 0.49629096 23.20621493 0.4375 20.3125 C0.3943044 18.35090207 0.35068977 16.38931332 0.30664062 14.42773438 C0.19956418 9.61858261 0.09826586 4.80933954 0 0 Z " fill="#4CAC4F" transform="translate(47,20)"/>
<path d="M0 0 C0.66 0 1.32 0 2 0 C3.60725635 3.21451269 3.05748185 6.43612536 3 10 C1.68 10 0.36 10 -1 10 C-1.125 3.375 -1.125 3.375 0 0 Z " fill="#D6EAC3" transform="translate(47,62)"/>
</svg>
