<?xml version="1.0" encoding="UTF-8"?>
<svg version="1.1" xmlns="http://www.w3.org/2000/svg" width="128" height="128">
<path d="M0 0 C3.04516602 1.45532227 3.04516602 1.45532227 6.25390625 3.31640625 C6.83607407 3.65115463 7.41824188 3.98590302 8.01805115 4.33079529 C9.87128216 5.39951654 11.71675526 6.48091247 13.5625 7.5625 C14.77362618 8.26186902 15.98521178 8.96044305 17.19726562 9.65820312 C39.59984518 22.59984518 39.59984518 22.59984518 43 26 C43.29434204 28.25018311 43.29434204 28.25018311 43.35400391 31.08886719 C43.39250961 32.68127228 43.39250961 32.68127228 43.43179321 34.30584717 C43.44656708 35.45788635 43.46134094 36.60992554 43.4765625 37.796875 C43.49270599 38.97840149 43.50884949 40.15992798 43.52548218 41.3772583 C43.55318291 43.88230502 43.57461872 46.38742753 43.59033203 48.89257812 C43.62474397 52.72151169 43.71248036 56.54698363 43.80078125 60.375 C43.82103644 62.80726623 43.83806825 65.23956187 43.8515625 67.671875 C43.88657867 68.81581726 43.92159485 69.95975952 43.95767212 71.1383667 C43.91539795 78.89949617 43.91539795 78.89949617 41.34835815 81.98562622 C39.30475602 83.55418935 37.27595657 84.79858477 35 86 C34.07687012 86.57669434 33.15374023 87.15338867 32.20263672 87.74755859 C31.37006348 88.20984863 30.53749023 88.67213867 29.6796875 89.1484375 C28.26804321 89.93903564 28.26804321 89.93903564 26.82788086 90.74560547 C25.85343018 91.28330566 24.87897949 91.82100586 23.875 92.375 C21.83159391 93.5096294 19.788624 94.64504469 17.74609375 95.78125 C16.76237793 96.3278125 15.77866211 96.874375 14.76513672 97.4375 C12.34785911 98.80343472 9.96647266 100.20848482 7.59765625 101.65625 C6.96682129 102.0373291 6.33598633 102.4184082 5.68603516 102.81103516 C4.06397044 103.7980441 2.45146954 104.80072389 0.83984375 105.8046875 C-2.68317276 107.28755277 -4.36266054 107.08111146 -8 106 C-10.703125 104.66015625 -10.703125 104.66015625 -13.25 103.0625 C-14.10078125 102.53785156 -14.9515625 102.01320313 -15.828125 101.47265625 C-18 100 -18 100 -20 98 C-20.32954432 94.90228335 -20.45334601 92.82668977 -18.9375 90.0625 C-15.77578164 88.32865445 -13.41194805 89.17642633 -10 90 C-9.154375 90.556875 -8.30875 91.11375 -7.4375 91.6875 C-5.05026791 93.32084096 -5.05026791 93.32084096 -2.35546875 92.375 C1.72383027 90.70338969 5.36201378 88.59436055 9.125 86.3125 C10.62887085 85.41530525 12.13277734 84.51817022 13.63671875 83.62109375 C15.09126855 82.74760016 16.54570144 81.87391183 18 81 C20.30858832 79.61812742 22.62147418 78.24445179 24.9375 76.875 C25.87464844 76.31554687 26.81179687 75.75609375 27.77734375 75.1796875 C30 74 30 74 32 74 C32 60.14 32 46.28 32 32 C30.35 31.34 28.7 30.68 27 30 C25.05758137 28.97784479 23.13144576 27.92440428 21.21875 26.84765625 C20.12949219 26.23599609 19.04023437 25.62433594 17.91796875 24.99414062 C16.79003906 24.35669922 15.66210938 23.71925781 14.5 23.0625 C13.37207031 22.42892578 12.24414062 21.79535156 11.08203125 21.14257812 C2.20543174 16.14752124 2.20543174 16.14752124 -0.54882812 14.16967773 C-2.94111667 12.70835895 -2.94111667 12.70835895 -5.45117188 13.61547852 C-6.29228516 14.07237061 -7.13339844 14.5292627 -8 15 C-9.37768555 15.72497681 -9.37768555 15.72497681 -10.78320312 16.46459961 C-11.77255859 17.02155518 -12.76191406 17.57851074 -13.78125 18.15234375 C-15.41513672 19.06983398 -15.41513672 19.06983398 -17.08203125 20.00585938 C-18.20996094 20.64330078 -19.33789062 21.28074219 -20.5 21.9375 C-21.62792969 22.57107422 -22.75585938 23.20464844 -23.91796875 23.85742188 C-29.87889418 27.19350353 -29.87889418 27.19350353 -35.73632812 30.70532227 C-38 32 -38 32 -40 32 C-40 45.86 -40 59.72 -40 74 C-38.35 74.66 -36.7 75.32 -35 76 C-33.515 76.99 -33.515 76.99 -32 78 C-29.35367713 77.6878236 -29.35367713 77.6878236 -27 77 C-26.9906543 75.74864258 -26.98130859 74.49728516 -26.97167969 73.20800781 C-26.93179518 68.5634405 -26.86604059 63.91953665 -26.79248047 59.27539062 C-26.76426193 57.26571173 -26.74305179 55.25592166 -26.72900391 53.24609375 C-26.70758665 50.35619151 -26.66094297 47.4676271 -26.609375 44.578125 C-26.60814636 43.68007141 -26.60691772 42.78201782 -26.60565186 41.85675049 C-26.46004319 35.64971654 -26.46004319 35.64971654 -24.15722656 32.39746094 C-22 31 -22 31 -18.875 31.0625 C-16 32 -16 32 -14 35 C-13.73930359 37.03549194 -13.73930359 37.03549194 -13.7253418 39.39208984 C-13.71104378 40.71894302 -13.71104378 40.71894302 -13.69645691 42.07260132 C-13.69736832 43.02575226 -13.69827972 43.9789032 -13.69921875 44.9609375 C-13.69493362 45.94365631 -13.6906485 46.92637512 -13.68623352 47.93887329 C-13.68048885 50.01848582 -13.67999096 52.09811844 -13.68432617 54.17773438 C-13.68748096 57.35581904 -13.66404636 60.53296831 -13.63867188 63.7109375 C-13.63639835 65.73176966 -13.63569563 67.75260432 -13.63671875 69.7734375 C-13.627509 70.72253998 -13.61829926 71.67164246 -13.60881042 72.64950562 C-13.64335522 77.59027699 -13.76221443 81.00248053 -17 85 C-21.36550038 89.24423648 -25.80276863 90.6749333 -31.8046875 91.28515625 C-35.79409184 90.92913361 -38.42745866 89.34449143 -41.6875 87.1875 C-42.25533203 86.83107422 -42.82316406 86.47464844 -43.40820312 86.10742188 C-48.99264858 82.53939987 -48.99264858 82.53939987 -51 80 C-51.39440918 77.61610413 -51.39440918 77.61610413 -51.41992188 74.76586914 C-51.43583374 73.69788589 -51.45174561 72.62990265 -51.46813965 71.52955627 C-51.46834106 70.37640427 -51.46854248 69.22325226 -51.46875 68.03515625 C-51.47636353 66.85030136 -51.48397705 65.66544647 -51.49182129 64.44468689 C-51.50263415 61.93718576 -51.50547061 59.42963955 -51.50097656 56.92211914 C-51.50000463 53.08078046 -51.54160917 49.24144054 -51.5859375 45.40039062 C-51.5911445 42.96615001 -51.59383269 40.53190243 -51.59375 38.09765625 C-51.61014526 36.94652847 -51.62654053 35.7954007 -51.64343262 34.60939026 C-51.57445835 26.66984788 -51.57445835 26.66984788 -48.81811523 23.45581055 C-47.88813721 22.97539307 -46.95815918 22.49497559 -46 22 C-45.09838135 21.43764648 -44.1967627 20.87529297 -43.26782227 20.29589844 C-42.29385498 19.7393457 -41.3198877 19.18279297 -40.31640625 18.609375 C-39.23004883 17.98546875 -38.14369141 17.3615625 -37.02441406 16.71875 C-35.88198242 16.0690625 -34.73955078 15.419375 -33.5625 14.75 C-31.79648163 13.74370781 -30.03076717 12.73688457 -28.26516724 11.7298584 C-26.54639487 10.74969451 -24.82715614 9.77034853 -23.10791016 8.79101562 C-20.5114278 7.29472383 -17.94184346 5.76846891 -15.38671875 4.203125 C-14.7537085 3.8205957 -14.12069824 3.43806641 -13.46850586 3.04394531 C-11.88405406 2.08143418 -10.30875933 1.10389181 -8.734375 0.125 C-5.25710707 -1.30564738 -3.63702514 -0.878302 0 0 Z " fill="#45A039" transform="translate(68,11)"/>
<path d="M0 0 C3.01338932 2.19667633 4.74792829 4.5463049 5.40234375 8.3203125 C5.49752708 10.68847363 5.55377564 12.69260151 5 15 C1.76746204 17.15502531 0.74849077 17.46856135 -3 17 C-5.5048111 15.12139167 -5.98700625 14.03898126 -7 11 C-9.32686453 9.83656773 -10.84721413 9.80104012 -13.4375 9.75 C-14.61119141 9.71132813 -14.61119141 9.71132813 -15.80859375 9.671875 C-18.47931509 10.07176911 -19.31977439 10.94699122 -21 13 C-20.31035156 13.17015625 -19.62070313 13.3403125 -18.91015625 13.515625 C-1.99833994 17.87697132 -1.99833994 17.87697132 4 25 C5.88286075 28.7657215 5.64207084 32.90909149 5 37 C2.86678335 41.0523735 0.4190359 43.40988632 -3.80859375 45.16796875 C-10.14998468 46.82123224 -17.78853684 47.21517586 -24 44.8125 C-31.27654174 40.41625604 -31.27654174 40.41625604 -32.59765625 36.00390625 C-33.22937072 32.04661447 -33.26067227 30.39100841 -31 27 C-29.125 26.6015625 -29.125 26.6015625 -27 26.625 C-26.29875 26.61726563 -25.5975 26.60953125 -24.875 26.6015625 C-23 27 -23 27 -21 30 C-21 30.99 -21 31.98 -21 33 C-16.71 33 -12.42 33 -8 33 C-7.67 32.01 -7.34 31.02 -7 30 C-7.70125 29.81824219 -8.4025 29.63648438 -9.125 29.44921875 C-26.02957486 24.97042514 -26.02957486 24.97042514 -31 20 C-33.24948916 16.03661434 -33.40194509 12.50178498 -33 8 C-30.76509243 2.94205129 -27.27887473 0.05994173 -22.3125 -2.25 C-14.68333433 -3.97735827 -7.02908246 -3.65290899 0 0 Z " fill="#44A039" transform="translate(91,45)"/>
</svg>
