<?xml version="1.0" encoding="UTF-8"?>
<svg version="1.1" xmlns="http://www.w3.org/2000/svg" width="128" height="128">
<path d="M0 0 C6.09266333 3.80662157 10.72668885 9.05145699 13.609375 15.64453125 C15.31396343 18.32064573 15.31396343 18.32064573 18.9375 18.5390625 C20.32918304 18.56627185 21.72137289 18.57313737 23.11328125 18.5625 C32.17312703 18.82620244 37.98444233 20.28743013 44.98046875 26.2421875 C48.79041766 30.7111546 48.7958751 35.56108714 48.67578125 41.16796875 C48.06886793 47.89143041 44.88474747 53.15286057 41.31640625 58.76171875 C40.13618336 61.64498255 40.48790021 62.98228992 41.42578125 65.9375 C42.37234553 67.98390744 43.37627685 70.00442793 44.42578125 72 C48.1612767 79.1207882 49.24780083 84.87714135 48.42578125 92.9375 C46.29120263 99.27163002 41.88817285 102.68307409 36.11328125 105.625 C32.52729903 106.95947812 29.30733869 106.97298722 25.50488281 106.9375 C18.7064628 106.79729971 18.7064628 106.79729971 13.08203125 110.23046875 C11.32691395 113.10355866 11.32691395 113.10355866 9.87109375 116.1328125 C7.24871579 121.22164324 2.70726249 124.79040055 -2.57421875 126.9375 C-9.39067468 127.86259045 -15.19626917 127.63910187 -20.83203125 123.48828125 C-24.20519571 120.48571109 -27.73734252 117.30708214 -29.26953125 112.96875 C-30.10785714 110.61758313 -30.60239757 109.51315619 -32.57421875 107.9375 C-36.62318082 107.30008025 -40.55852769 107.17789398 -44.6484375 107.08984375 C-51.90712587 106.80816331 -56.65268805 104.29396566 -62.12890625 99.6328125 C-65.9235325 95.18181847 -65.94416408 90.36229841 -65.82421875 84.77734375 C-65.21035826 77.80427225 -62.60395956 72.42577213 -58.46484375 66.859375 C-57.20454788 64.13978918 -57.68526504 62.77628144 -58.57421875 59.9375 C-59.52078303 57.89109256 -60.52471435 55.87057207 -61.57421875 53.875 C-65.3525876 46.67248437 -66.20133045 41.06628751 -65.57421875 32.9375 C-63.86601085 27.61191067 -60.30410231 23.84550248 -55.57421875 20.9375 C-51.10912606 19.31432017 -47.36142811 18.83444233 -42.62475586 18.96606445 C-39.05595555 19.02512663 -36.08280104 18.74071343 -32.57421875 17.9375 C-29.97053672 15.39013722 -28.6327247 12.99391251 -27.01953125 9.7421875 C-21.92500794 -0.14394152 -10.29961055 -4.25112909 0 0 Z M-17.57421875 8.9375 C-20.91343866 12.62926703 -23.9887947 16.18122785 -25.57421875 20.9375 C-14.85170333 25.67111131 -14.85170333 25.67111131 -3.57421875 24.9375 C-2.53523438 24.61523438 -1.49625 24.29296875 -0.42578125 23.9609375 C2.54325075 22.99894345 5.48790667 21.99023839 8.42578125 20.9375 C5.45336791 14.77350921 2.40191367 9.55395782 -3.57421875 5.9375 C-9.24500249 4.11474808 -13.10906732 5.13130263 -17.57421875 8.9375 Z M-56.94921875 31.0625 C-59.25980147 35.15045404 -59.29857528 38.3450796 -58.57421875 42.9375 C-56.91892895 48.69723286 -55.02990221 52.84688304 -50.57421875 56.9375 C-40.41350205 48.82644512 -37.28782441 41.65930842 -35.57421875 28.9375 C-35.57421875 27.9475 -35.57421875 26.9575 -35.57421875 25.9375 C-47.21047073 25.35979636 -47.21047073 25.35979636 -56.94921875 31.0625 Z M18.42578125 25.9375 C18.60529444 27.48131346 18.80192841 29.02380186 19.046875 30.55859375 C19.33004012 32.33640363 19.56432457 34.12212318 19.7734375 35.91015625 C21.38186676 45.90624621 25.99709086 50.64392359 33.42578125 56.9375 C38.87765292 51.93231529 41.55007824 45.5868708 41.98828125 38.1875 C41.74697774 33.31833987 39.98803605 31.18310993 36.42578125 27.9375 C32.40969291 25.8806492 29.0890796 25.72207983 24.61328125 25.8125 C23.45183594 25.83054687 22.29039063 25.84859375 21.09375 25.8671875 C19.77310547 25.90199219 19.77310547 25.90199219 18.42578125 25.9375 Z M-28.57421875 26.9375 C-29.56421875 30.8975 -30.55421875 34.8575 -31.57421875 38.9375 C-27.73805199 37.4030333 -25.08028314 36.09091734 -21.76171875 33.8125 C-20.97152344 33.27367187 -20.18132813 32.73484375 -19.3671875 32.1796875 C-18.77550781 31.76976562 -18.18382812 31.35984375 -17.57421875 30.9375 C-20.26751997 29.14196585 -21.72027885 28.51053539 -24.76171875 27.8125 C-26.01984375 27.52375 -27.27796875 27.235 -28.57421875 26.9375 Z M4.80078125 28.4375 C3.57488281 28.85515625 3.57488281 28.85515625 2.32421875 29.28125 C1.69773437 29.4978125 1.07125 29.714375 0.42578125 29.9375 C3.84589295 33.78512566 7.89352381 36.54384022 12.42578125 38.9375 C13.08578125 38.9375 13.74578125 38.9375 14.42578125 38.9375 C13.43578125 34.9775 12.44578125 31.0175 11.42578125 26.9375 C8.95957836 26.9375 7.13233999 27.63810843 4.80078125 28.4375 Z M-16.07421875 37.4375 C-16.64914063 37.75203125 -17.2240625 38.0665625 -17.81640625 38.390625 C-19.78369862 39.50742853 -21.67495556 40.70840917 -23.57421875 41.9375 C-24.45045898 42.46859375 -25.32669922 42.9996875 -26.22949219 43.546875 C-30.1645136 46.22173426 -33.02974219 48.25851209 -34.53125 52.88867188 C-34.92157351 56.29270373 -34.94065512 59.51427068 -34.82421875 62.9375 C-34.86289062 64.07445313 -34.9015625 65.21140625 -34.94140625 66.3828125 C-34.88526601 71.22210092 -34.71317712 74.59305388 -31.51464844 78.36865234 C-28.96352972 80.44926592 -26.37872892 82.21699895 -23.57421875 83.9375 C-22.90229492 84.39672852 -22.23037109 84.85595703 -21.53808594 85.32910156 C-19.84322735 86.47347747 -18.08451797 87.52159247 -16.32421875 88.5625 C-15.751875 88.92472656 -15.17953125 89.28695312 -14.58984375 89.66015625 C-11.55343567 91.43369461 -9.97757353 92.01449946 -6.484375 91.34765625 C-3.61048842 89.95507497 -0.94252001 88.4855706 1.73828125 86.75 C3.03185547 85.92435547 3.03185547 85.92435547 4.3515625 85.08203125 C5.36605469 84.37433594 6.38054687 83.66664062 7.42578125 82.9375 C8.19108154 82.4938208 8.95638184 82.0501416 9.74487305 81.59301758 C13.48383781 79.18576937 15.97093938 77.41891655 17.30737305 73.06616211 C17.67580614 69.66724433 17.70365267 66.4168087 17.61328125 63 C17.67805664 61.28780273 17.67805664 61.28780273 17.74414062 59.54101562 C17.70773215 54.69308766 17.5658785 51.29685718 14.37939453 47.49755859 C11.82551736 45.40660516 9.24861518 43.64468565 6.42578125 41.9375 C5.38587036 41.26473022 5.38587036 41.26473022 4.32495117 40.57836914 C2.55368306 39.46689898 0.75993648 38.44093919 -1.07421875 37.4375 C-1.68007812 37.09203125 -2.2859375 36.7465625 -2.91015625 36.390625 C-8.68986217 33.15398968 -10.58562551 34.30783407 -16.07421875 37.4375 Z M-44.13671875 59.4375 C-45.34328125 60.675 -45.34328125 60.675 -46.57421875 61.9375 C-45.03548698 65.65610179 -44.09910487 66.29383541 -40.57421875 68.9375 C-40.57421875 64.9775 -40.57421875 61.0175 -40.57421875 56.9375 C-42.05158857 56.82111269 -42.05158857 56.82111269 -44.13671875 59.4375 Z M23.42578125 56.9375 C23.42578125 60.8975 23.42578125 64.8575 23.42578125 68.9375 C25.40578125 67.2875 27.38578125 65.6375 29.42578125 63.9375 C27.88704948 60.21889821 26.95066737 59.58116459 23.42578125 56.9375 Z M-51.57421875 68.9375 C-56.75634694 76.2141469 -60.00300133 82.82536621 -58.57421875 91.9375 C-56.92026671 95.27957664 -54.67228507 97.37702865 -51.32421875 99.0859375 C-48.01528201 100.11057984 -45.21937395 100.13235162 -41.76171875 100.0625 C-40.60027344 100.04445313 -39.43882813 100.02640625 -38.2421875 100.0078125 C-36.92154297 99.97300781 -36.92154297 99.97300781 -35.57421875 99.9375 C-36.0432849 97.26781497 -36.52577249 94.60303591 -37.0390625 91.94140625 C-37.57421875 88.9375 -37.57421875 88.9375 -37.765625 86.58984375 C-38.66907957 78.68820143 -44.83978258 73.86193556 -50.57421875 68.9375 C-50.90421875 68.9375 -51.23421875 68.9375 -51.57421875 68.9375 Z M33.42578125 68.9375 C23.26506455 77.04855488 20.13938691 84.21569158 18.42578125 96.9375 C18.42578125 97.9275 18.42578125 98.9175 18.42578125 99.9375 C30.06203323 100.51520364 30.06203323 100.51520364 39.80078125 94.8125 C42.11136397 90.72454596 42.15013778 87.5299204 41.42578125 82.9375 C39.77049145 77.17776714 37.88146471 73.02811696 33.42578125 68.9375 Z M-31.57421875 86.9375 C-30.58421875 90.8975 -29.59421875 94.8575 -28.57421875 98.9375 C-24.94421875 97.9475 -21.31421875 96.9575 -17.57421875 95.9375 C-20.43139598 93.08032277 -22.40153853 91.21877071 -25.69921875 89.1875 C-26.38242187 88.75953125 -27.065625 88.3315625 -27.76953125 87.890625 C-29.52881685 86.78183063 -29.52881685 86.78183063 -31.57421875 86.9375 Z M6.30078125 90.9375 C5.73746094 91.3190625 5.17414063 91.700625 4.59375 92.09375 C3.20163284 93.03755824 1.81333917 93.98700161 0.42578125 94.9375 C2.73872945 97.2504482 3.90483 97.43330975 7.05078125 98.0625 C8.49453125 98.35125 9.93828125 98.64 11.42578125 98.9375 C12.41578125 94.9775 13.40578125 91.0175 14.42578125 86.9375 C11.11824702 86.9375 8.98158552 89.11227156 6.30078125 90.9375 Z M-18.38671875 102.4375 C-19.07958984 102.67597656 -19.77246094 102.91445312 -20.48632812 103.16015625 C-22.1846577 103.74578714 -23.87977641 104.34071527 -25.57421875 104.9375 C-22.60180541 111.10149079 -19.55035117 116.32104218 -13.57421875 119.9375 C-9.22762185 121.33462043 -7.32452025 121.23226131 -3.07421875 119.5625 C2.10005201 116.22614894 6.48551056 110.75831207 8.42578125 104.9375 C6.19995736 104.09415671 3.97082099 103.26271449 1.73828125 102.4375 C1.11244141 102.19902344 0.48660156 101.96054688 -0.15820312 101.71484375 C-7.18042022 99.14125633 -11.47057515 99.98872188 -18.38671875 102.4375 Z " fill="#00CDDD" transform="translate(72.57421875,1.0625)"/>
<path d="M0 0 C3.50696828 3.9244645 3.625 5.72030912 3.625 10.9375 C2.62350394 14.94348425 0.95563762 17.48334596 -2.375 19.9375 C-6.12582261 21.02264365 -9.33600729 21.19724818 -13.125 20.25 C-16.36802481 18.35823553 -18.82389153 16.84241841 -19.9140625 13.07421875 C-20.59810531 8.85065211 -20.58839313 5.73188822 -18.375 1.9375 C-16.56707225 -0.2320133 -15.14608567 -1.71684091 -12.5625 -2.875 C-7.6166497 -3.29893003 -4.25033895 -2.59742936 0 0 Z M-12.3125 5 C-13.87454362 7.84843248 -13.12421024 9.87254903 -12.375 12.9375 C-8.29799075 14.06187693 -8.29799075 14.06187693 -4.4375 12.875 C-2.87545638 10.02656752 -3.62578976 8.00245097 -4.375 4.9375 C-8.45200925 3.81312307 -8.45200925 3.81312307 -12.3125 5 Z " fill="#00CEDE" transform="translate(72.375,55.0625)"/>
</svg>
